<?xml version="1.0" standalone="no"?>
<!DOCTYPE svg PUBLIC "-//W3C//DTD SVG 20010904//EN"
 "http://www.w3.org/TR/2001/REC-SVG-20010904/DTD/svg10.dtd">
<svg version="1.0" xmlns="http://www.w3.org/2000/svg"
 width="512.000000pt" height="512.000000pt" viewBox="0 0 512.000000 512.000000"
 preserveAspectRatio="xMidYMid meet">
<metadata>
Created by potrace 1.14, written by Peter Selinger 2001-2017
</metadata>
<g transform="translate(0.000000,512.000000) scale(0.100000,-0.100000)"
fill="#000000" stroke="none">
<path d="M3595 4408 c-16 -6 -41 -21 -55 -34 -53 -49 -108 -56 -156 -19 -66
50 -86 33 -202 -170 -90 -157 -175 -434 -189 -612 -8 -106 10 -195 48 -237 25
-28 33 -31 81 -29 76 3 123 22 286 120 109 65 146 93 154 113 5 15 24 38 43
52 48 34 106 111 154 203 23 44 46 87 51 95 11 21 47 153 60 222 8 41 8 68 0
99 -14 50 -49 107 -72 114 -9 3 -24 17 -33 31 -36 55 -102 76 -170 52z m19
-384 c25 -65 -36 -173 -139 -244 -22 -15 -60 -46 -85 -69 -57 -51 -93 -67
-128 -55 -44 15 -46 58 -7 163 16 45 89 141 106 141 5 0 26 10 47 23 87 54
193 76 206 41z"/>
<path d="M1934 3961 c-24 -37 -27 -52 -35 -198 -5 -87 -15 -264 -24 -393 -8
-129 -17 -337 -19 -462 -3 -129 -10 -236 -15 -247 -6 -11 -28 -25 -48 -32 -72
-23 -137 -61 -192 -113 -31 -29 -73 -63 -93 -75 -21 -12 -38 -26 -38 -30 0 -4
-18 -18 -41 -30 -23 -13 -55 -35 -73 -50 -17 -15 -44 -33 -61 -41 -16 -8 -46
-26 -65 -41 -19 -14 -55 -37 -80 -49 -61 -31 -232 -144 -249 -164 -21 -25 -66
-20 -90 10 -24 30 -26 72 -12 199 5 44 14 170 21 280 21 377 27 440 49 483 33
65 50 67 257 37 206 -31 272 -30 309 5 30 28 31 45 5 88 -24 39 -40 46 -166
67 -55 10 -135 28 -179 40 -132 38 -294 59 -468 60 -147 0 -160 -1 -173 -20
-19 -25 -11 -89 14 -124 10 -14 42 -32 72 -43 102 -34 119 -45 126 -84 8 -43
-2 -162 -16 -200 -6 -15 -22 -124 -35 -243 -52 -452 -57 -752 -13 -869 13 -36
41 -79 75 -116 71 -79 100 -98 140 -92 32 5 133 51 143 65 3 4 28 21 55 36 28
16 64 41 82 56 18 15 47 35 65 43 18 9 58 39 88 66 30 27 58 50 62 50 4 0 46
38 94 85 48 47 90 85 93 85 4 0 24 23 46 51 42 55 225 412 225 439 0 23 32 50
58 50 27 0 29 -11 36 -180 6 -161 33 -293 76 -381 18 -35 38 -89 45 -119 32
-128 91 -218 123 -186 8 7 14 24 14 37 0 13 -5 219 -10 458 -6 266 -6 446 -1
467 18 64 97 95 289 114 63 6 131 15 150 20 49 13 140 99 140 132 0 62 -67 88
-227 88 -89 -1 -137 -5 -274 -25 -60 -9 -83 12 -97 87 -6 29 -15 233 -19 453
-8 343 -11 404 -26 432 -39 74 -74 82 -113 24z"/>
<path d="M3562 3409 c-30 -11 -59 -78 -82 -188 -10 -47 -28 -114 -39 -149 -12
-35 -30 -108 -41 -162 -11 -55 -25 -112 -31 -127 -6 -15 -23 -95 -39 -178 -15
-82 -37 -197 -48 -255 -11 -58 -25 -136 -31 -175 -5 -38 -21 -137 -35 -220
-14 -82 -30 -200 -35 -262 -10 -108 -32 -203 -55 -232 -6 -7 -35 -27 -64 -44
-59 -33 -92 -76 -92 -119 0 -35 27 -105 54 -139 12 -15 26 -35 32 -45 16 -27
113 -21 210 11 82 27 124 31 142 13 19 -19 14 -40 -19 -93 -17 -26 -42 -84
-55 -129 -14 -45 -32 -101 -40 -126 -23 -73 -54 -250 -54 -310 0 -101 30 -162
87 -177 34 -8 202 43 248 76 22 16 54 31 71 35 17 4 46 21 64 38 19 17 49 37
66 44 48 20 194 118 235 157 19 19 48 42 65 52 16 10 34 25 40 32 6 7 27 25
46 40 57 46 157 164 193 230 50 88 45 143 -13 143 -22 0 -72 -36 -168 -121
-22 -20 -65 -52 -95 -71 -30 -19 -60 -43 -68 -52 -8 -10 -33 -27 -55 -38 -23
-11 -52 -32 -66 -46 -14 -14 -41 -32 -60 -41 -19 -9 -57 -31 -84 -49 -27 -17
-64 -36 -83 -43 -18 -6 -57 -26 -85 -45 -43 -29 -59 -34 -96 -32 -28 2 -49 9
-55 19 -9 15 27 201 69 346 9 31 12 67 9 87 -9 45 18 136 47 162 13 12 39 27
58 34 19 7 49 23 65 35 17 12 55 35 85 50 30 15 76 43 102 61 25 19 66 43 90
55 78 36 205 147 235 204 9 17 24 41 34 54 11 13 19 39 19 57 0 40 -38 74 -85
74 -70 0 -239 -43 -321 -81 -47 -22 -109 -49 -137 -60 -29 -11 -68 -31 -87
-43 -19 -13 -62 -38 -95 -56 -132 -72 -134 -73 -150 -60 -22 18 -20 127 4 182
10 24 28 100 40 169 12 68 31 158 41 199 10 41 22 98 25 125 4 28 15 82 25
120 10 39 28 133 40 210 11 77 30 190 40 250 25 139 54 549 41 574 -17 30 -34
39 -59 30z"/>
</g>
</svg>
